PathFileType	4	(X/Y/Z)	Patient4_TMGait_0pt7_02_left_10.trc.trc
DataRate	CameraRate	NumFrames	NumMarkers	Units	OrigDataRate	OrigDataStartFrame	OrigNumFrames
85.365853658537	85.365853658537	6	33	mm	85.365853658537	36	       141
Frame#	Time	Sacral			L.Shoulder			Chest			R.Shoulder			Neck			R.ASIS			L.ASIS			R.Thigh.Superior			R.Thigh.Lateral			R.Thigh.Inferior			R.Patella			L.Thigh.Superior			L.Thigh.Lateral			L.Thigh.Inferior			L.Patella			L.Shank.Superior			L.Shank.Lateral			L.Shank.Inferior			R.Shank.Superior			R.Shank.Lateral			R.Shank.Inferior			R.Heel			R.Midfoot.Superior			R.Midfoot.Lateral			R.Toe			L.Heel			L.Midfoot.Lateral			L.Midfoot.Superior			L.Toe			L.Elbow			L.Wrist			R.Elbow			R.Wrist			
		X1	Y1	Z1	X2	Y2	Z2	X3	Y3	Z3	X4	Y4	Z4	X5	Y5	Z5	X6	Y6	Z6	X7	Y7	Z7	X8	Y8	Z8	X9	Y9	Z9	X10	Y10	Z10	X11	Y11	Z11	X12	Y12	Z12	X13	Y13	Z13	X14	Y14	Z14	X15	Y15	Z15	X16	Y16	Z16	X17	Y17	Z17	X18	Y18	Z18	X19	Y19	Z19	X20	Y20	Z20	X21	Y21	Z21	X22	Y22	Z22	X23	Y23	Z23	X24	Y24	Z24	X25	Y25	Z25	X26	Y26	Z26	X27	Y27	Z27	X28	Y28	Z28	X29	Y29	Z29	X30	Y30	Z30	X31	Y31	Z31	X32	Y32	Z32	X33	Y33	Z33	

36	11.460000000000	797.618897378757	1009.617986384720	473.860922081801	963.904350031008	1426.497364276043	276.153729270118	1083.602833618921	1354.915503166158	424.766549534635	1024.748483655559	1438.463032601633	603.090369128383	987.098689763981	1488.873757915934	427.692722432920	1023.444971081065	936.523355238556	581.977048750328	1004.342423749482	952.463862335392	307.810921060550	1026.866532924655	723.385043038230	568.045309150872	924.631733727533	628.733225419655	630.372653472850	995.654046731389	558.472119161532	559.944388035862	973.762398078663	457.186997080699	577.034295197099	1078.488065474306	767.564942454104	348.816959719978	1014.653017140646	637.957978131022	283.850189023379	1110.453802669691	573.590580981601	348.650594069952	1123.205076692994	502.112210594927	356.408699847993	1100.319496744999	427.137785940486	347.383710919660	1020.777229181695	307.208330233889	293.271852027164	1079.789202553411	198.605741962393	362.078865312732	902.630738900144	389.568615329741	580.737416603893	787.014111056173	335.198262630952	639.324490486069	785.306944440693	226.437332798119	584.812020639662	591.580097780443	124.935133360033	553.533133583688	770.209212556720	110.348447707391	592.352193894533	664.126662598380	79.651743672984	624.676503214977	859.332128404837	34.431286288560	611.246275491312	960.831849580771	39.032969769439	398.234599456952	1037.046176424999	36.866225166066	319.452944312152	1119.038967800671	97.755913881774	348.902741719938	1248.612896245260	44.713901307719	323.826538069388	818.909822331582	1102.921441838792	193.246688989709	784.598348687976	843.519117474650	214.732845700797	1179.655985473732	1143.101553474663	713.848821418015	1362.050222377705	1267.218550787075	599.137392938902	
37	11.471714285714	797.142136610714	1010.449030645034	470.446170124159	964.753415324424	1427.646687680082	273.746052843415	1083.640445491822	1355.834107475537	422.881811135305	1023.930435852042	1439.193015198956	601.110394009646	987.173079762920	1489.841316162858	425.443522440043	1022.707079140462	937.531889029392	579.252240743787	1004.560967557746	953.310282369984	305.230472012579	1030.377422319523	724.987522138969	566.470627665045	930.329230888790	628.655544888735	628.897955622329	1003.446783717018	559.218501582171	559.015529494954	982.552734218102	456.359724816237	577.453145856214	1077.686156931836	766.788510301219	345.440699200750	1011.366472726276	637.614347284722	282.055924755413	1106.807165048464	572.547201852014	346.560925549336	1118.757342932442	501.320098265940	355.157891925593	1095.362076464417	426.491569657021	346.304774181351	1014.991286934814	307.040287216559	292.401223200335	1072.856396416038	198.259541586923	361.780893687668	909.089531213772	389.912761614873	580.739519076193	791.317327873971	339.746630027787	638.851680919935	786.645955515119	230.683704142996	585.295765565924	590.069297627552	137.515338971868	553.757995479756	767.451020862338	113.480012051948	593.063983031296	659.929124077005	88.153396567915	624.758143531197	851.540031560909	33.326732197629	611.371447570078	952.657468632175	38.997890862977	398.206460678264	1028.847206820715	36.808391323652	319.400336535638	1110.869986140478	97.679025729301	348.873371923628	1240.465022365331	44.484101631125	323.696502953164	824.039084525382	1101.994347037988	188.754400103692	798.347174076193	841.407448896560	208.496676921765	1171.630244195951	1140.054430348774	715.438828962266	1360.276246648571	1257.689570354821	603.932086382881	
38	11.483428571429	796.479167910195	1010.989571388050	467.111696151041	965.658064423872	1428.579400170650	271.357359731986	1083.551335828310	1356.543923479288	421.169367249921	1022.773476230338	1439.739055430587	599.219207771290	987.082207743543	1490.631821354991	423.204094754343	1021.779415625154	938.338228595950	576.761213112170	1004.656360788229	953.906831942940	302.891664655395	1034.299428268549	726.688246328504	564.968947429759	936.729196955965	628.515672402152	627.422808809873	1011.928588279275	560.113615591386	557.905019076527	992.118012104773	455.734791998362	577.410390446136	1076.528416224943	765.706984675971	342.214237611054	1007.951422271735	637.211133541168	280.204518190072	1102.911539881499	571.454184604002	344.583245347816	1114.057966740674	500.450387779728	353.821951036508	1090.186277931194	425.769135552981	345.126136589298	1009.019127078163	306.753347533939	291.489016844041	1065.832416408530	197.843990898623	361.419084242084	916.447909351765	390.368047881221	580.406613869198	796.696355018753	344.487510015528	638.125570058279	788.881404660891	235.312208809623	585.456367062884	589.830460075057	151.022110033699	553.606193036987	765.348096977843	117.247978851307	593.522716309019	656.624063088195	97.725252787007	624.602689186700	844.044601168130	32.151330079242	611.633872443252	944.454705376812	38.952811704160	398.185056624013	1020.623993695898	36.704792744848	319.354479660150	1102.701957017164	97.517150417976	348.847394165780	1232.308809109786	44.128299989798	323.606242198499	829.167757079727	1100.982595547485	184.196512295769	812.734219030404	839.458722311366	202.054487554790	1162.972933343367	1136.835071980321	716.911405705457	1358.405772630934	1246.799156175917	609.154034351940	
39	11.495142857143	795.625555111333	1011.260416397461	463.901761180212	966.595683998251	1429.285367741280	269.017546107627	1083.325888101665	1357.031835467153	419.648291648787	1021.308698601763	1440.119045017748	597.428993624365	986.842220605345	1491.253487191200	420.996431326189	1020.659826331388	938.947651397413	574.509791763874	1004.588245692914	954.304118519148	300.765883765209	1038.527860695547	728.542792749990	563.452512586451	943.776385435469	628.407925497634	625.940203958359	1020.983317525587	561.247542616514	556.579972262435	1002.390718494812	455.405372315555	576.907520980971	1075.029260974790	764.466109650032	339.195308816115	1004.492446600651	636.828668552322	278.291248840126	1098.837250237242	570.376105547868	342.694594665289	1109.180511358539	499.547272010938	352.378736605125	1084.861151939689	425.002396897661	343.843857817213	1002.917569857699	306.393311716889	290.519563433723	1058.740215944746	197.384074988289	360.983294553337	924.647929531094	391.004747522999	579.736265973550	803.103443803384	349.421380078400	637.120050778314	792.046913489377	240.319895398794	585.262970831264	590.960877268354	165.233735943080	553.003024108193	764.021880477895	121.667896406060	593.679054412918	654.369004672595	108.239340821826	624.155376921632	837.061442807213	31.057470729973	612.027864319633	936.237045319164	38.913463826505	398.153280201974	1012.390589241736	36.578277864112	319.300573327345	1094.542851446759	97.303631494559	348.806690146669	1224.152164517188	43.693764602521	323.540646920928	834.381535002059	1099.840865386162	179.593378397753	827.755773844390	837.700802078775	195.449429204227	1153.735935936468	1133.475073583323	718.205592194807	1356.298652943983	1234.562151185455	614.759688932737	
40	11.506857142857	794.582237477413	1011.312104904328	460.843759477108	967.525518206714	1429.775321531749	266.758547074384	1082.954704104197	1357.312263977803	418.325733599719	1019.575137909050	1440.366214585402	595.751137530297	986.472120357166	1491.728119193390	418.848135642841	1019.354002700339	939.388712244003	572.487389254895	1004.330237127093	954.568951251364	298.817912031297	1042.934509202172	730.611825495541	561.830679552062	951.371989189624	628.442838043075	624.452881711618	1030.464129589468	562.718355752372	555.037590409080	1013.278107126546	455.473167981670	576.000332229906	1073.227069261617	763.192161990881	336.396329790029	1001.012677289357	636.517378325460	276.331378046387	1094.627102104573	569.350797188067	340.859884301447	1104.171883107807	498.645489223556	350.827081892757	1079.429174772458	424.221333973643	342.468752982466	996.719863417139	306.001409356342	289.494317125810	1051.590429225965	196.904425703505	360.475548653516	933.609251990886	391.901446200050	578.764635564686	810.457933155116	354.540288598766	635.831090647981	796.169199748432	245.677192076724	584.708046005246	593.518415371541	179.830956611765	551.894610605594	763.615894054474	126.700980775823	593.489189839896	653.322010279573	119.469032198909	623.370023592313	830.876797995927	30.243312852688	612.520598158926	928.015348287642	38.890178244611	398.100361139809	1004.157233942812	36.447917346864	319.229326817910	1086.395807443639	97.070481865497	348.737529261495	1215.998484069440	43.229099407675	323.484074014676	839.777330077427	1098.545029926029	174.961651528002	843.432739141029	836.173462677421	188.735512491781	1143.968020866737	1130.013211928921	719.271704560997	1353.799620477432	1221.011753781573	620.696762835472	
41	11.518571428571	793.355469169194	1011.217326487178	457.949871805542	968.396035796445	1430.077930392736	264.609810657420	1082.430689534010	1357.424799235055	417.197099374659	1017.614603811227	1440.524725286810	594.194738267232	985.991037994296	1492.087329055538	416.787517652024	1017.874714226411	939.707989566110	570.671926240054	1003.872932727231	954.774782759702	297.016456401424	1047.381498342716	732.953221319842	560.027223908681	959.378102925856	628.734371898741	622.973603296627	1040.205208844945	564.621341653113	553.308495386407	1024.663593883453	456.039271725436	574.785678662732	1071.175491449218	761.977456093841	333.791325030036	997.485086069870	636.301740901333	274.355930893715	1090.293361749166	568.392969250007	339.044078152853	1099.047622152209	497.770421740272	349.185259910707	1073.903226592951	423.453192935601	341.024845907767	990.436158819082	305.611679713098	288.427874434421	1044.382592163273	196.427881659188	359.908038403845	943.233316789604	393.136389613923	577.558599684986	818.653755405422	359.820281875754	634.277576596767	801.265686541651	251.321807166075	583.807261847678	597.513384362647	194.408804056680	550.259684442551	764.289219399813	132.251998591782	592.920823660027	653.631977530758	131.094408308263	622.217230772215	825.842492864470	29.927648398199	613.050426592994	919.796599886249	38.888354184297	398.021413156926	995.929847118898	36.327658045284	319.136899597109	1078.260271280346	96.844191545643	348.631898324266	1207.847367081570	42.776068143436	323.423297170986	845.451554033828	1097.096376717466	170.315321980576	859.797909790457	834.933811826578	181.977278485730	1133.714032555110	1126.498750257525	720.072206958121	1350.742552693571	1206.211134244602	626.904452475053	
